<?xml version="1.0" encoding="utf-8"?><svg xmlns="http://www.w3.org/2000/svg" xmlns:xlink="http://www.w3.org/1999/xlink"><symbol viewBox="0 0 281 16" id="arow" xmlns="http://www.w3.org/2000/svg"><path d="M280.707 8.707a1 1 0 000-1.414L274.343.929a1 1 0 10-1.414 1.414L278.586 8l-5.657 5.657a1 1 0 101.414 1.414l6.364-6.364zM0 9h2V7H0v2zm6 0h4V7H6v2zm8 0h4V7h-4v2zm8 0h4V7h-4v2zm8 0h4V7h-4v2zm8 0h4V7h-4v2zm8 0h4V7h-4v2zm8 0h4V7h-4v2zm8 0h4V7h-4v2zm8 0h4V7h-4v2zm8 0h4V7h-4v2zm8 0h4V7h-4v2zm8 0h4V7h-4v2zm8 0h4V7h-4v2zm8 0h4V7h-4v2zm8 0h4V7h-4v2zm8 0h4V7h-4v2zm8 0h4V7h-4v2zm8 0h4V7h-4v2zm8 0h4V7h-4v2zm8 0h4V7h-4v2zm8 0h4V7h-4v2zm8 0h4V7h-4v2zm8 0h4V7h-4v2zm8 0h4V7h-4v2zm8 0h4V7h-4v2zm8 0h4V7h-4v2zm8 0h4V7h-4v2zm8 0h4V7h-4v2zm8 0h4V7h-4v2zm8 0h4V7h-4v2zm8 0h4V7h-4v2zm8 0h4V7h-4v2zm8 0h4V7h-4v2zm8 0h4V7h-4v2zm8 0h2V7h-2v2z" fill-opacity=".24"/></symbol><symbol viewBox="0 0 35 35" id="donar" xmlns="http://www.w3.org/2000/svg"><circle cx="17.5" cy="17.5" r="12.5" stroke-width="10"/></symbol><symbol viewBox="0 0 28 28" id="dzen" xmlns="http://www.w3.org/2000/svg"><path fill-rule="evenodd" clip-rule="evenodd" d="M16.7 16.7c-2.2 2.27-2.35 5.1-2.55 11.3 5.78 0 9.77-.02 11.83-2.02 2-2.06 2.02-6.24 2.02-11.83-6.2.2-9.03.35-11.3 2.55zM13.85 28c-5.78 0-9.77-.02-11.83-2.02C.02 23.92 0 19.74 0 14.15c6.2.2 9.03.35 11.3 2.55 2.2 2.27 2.35 5.1 2.55 11.3zM11.3 11.3C9.03 13.5 6.2 13.65 0 13.85 0 8.26.02 4.08 2.02 2.02 4.08.02 8.08 0 13.85 0c-.2 6.2-.35 9.03-2.55 11.3zM14.15 0c.19 6.2.35 9.03 2.55 11.3 2.27 2.2 5.1 2.35 11.3 2.55 0-5.59-.02-9.77-2.02-11.83C23.92.02 19.93 0 14.15 0z"/></symbol><symbol viewBox="0 0 200 86" id="logo" xmlns="http://www.w3.org/2000/svg"><path d="M137.189 29.058h-41.22v3.284a58.084 58.084 0 00-2.002-4.678s-2.848-4.965-3.021-5.213h.02l2.77.477-1.366-2.444c-.193-.325-1.925-3.15-7.91-4.068-.038-.324-.018-1.05.482-2.52.173-.497.327-.955.462-1.375.558-1.7.923-2.807 1.308-3.208.193-.21.558-.344 1.963-.44 1.097-.076 1.963-.095 2.656-.114 1.462-.019 2.444-.038 3.098-.821.596-.687.52-1.547.404-2.292a10.263 10.263 0 01-.096-.878c-.135-1.356-.308-3.036-1.52-3.99-.674-.536-1.52-.727-2.54-.593-2.656.363-10.334 2.864-10.662 2.96l-.442.153-.25.382c-.116.171-2.906 4.315-3.85 8.84-.73 3.438-2.077 5.596-4.387 6.97-.558.25-5.561 2.54-10.045 2.96l-3.214.306L60.31 24.8c.135.115 3.329 2.521 3.329 2.521a118.27 118.27 0 00-.904 3.017v-1.26H41.374v3.132l-3.29-3.132H27.556l-4.08 3.895v-3.895H0v37.427h23.497V62.61l4.08 3.895h10.487l6.504-6.206v-19.84h1.405v26.027h12.124V40.458h2.04c-.982 5.194-1.001 9.051-.385 13.978.23 1.89.48 3.838.693 6.072.25 2.693.673 7.868 1.212 12.069l17.261 7.638L91.6 74.601c.173-1.127.231-1.47.423-2.635.5-2.98 1.078-6.244 1.694-9.7.885-4.927 1.655-9.3 2.251-13.062v17.32h49.976l.597-5.958h.519l.693 5.957h25.479l4.888-4.678 4.888 4.678h10.488L200 60.317v-12.01l-3.618-3.553h3.234v-9.49l-6.505-6.206h-9.757l-5.081 4.85-5.041-4.85H156.24V41.47l-2.04-12.412h-15.53l-1.481 11.4h-.136l.136-11.4zm42.548 17.033l-.155-.153V36.41l.155-.153v9.834z"/><path d="M65.217 26.747s4.657 4.201 15.395-1.547c10.738-5.747 9.814-1.852 9.814-1.852s7.852 11.782 3.618 29.522c-1.482 6.225-2.636 13.825-3.483 21.044l-11.643 4.869-16.01-6.454c-2.58-17.683-4.08-39.128 2.309-45.582z"/><path d="M64.312 29.516s3.888 2.253 8.756 2.463c0 0 3.099-1.623 0 6.932l-7.851 4.927s-2.175 6.569-1.867 10.216c.231 2.597 1.617 12.45 2.579 18.943.385 2.597 18.743 8.173 19.474 2.903.905-6.474 1.906-14.704 1.906-19.23 0-8.192 2.79-13.844 2.482-16.193-.308-2.349-1.636-1.871-3.502-10.77-.135-.687-.443-1.337 1.27-2.52 1.847-1.3 3.079-1.891 3.079-2.693s-2.175-3.285-2.175-3.285-14.721 8.002-19.032 7.486c-4.31-.516-4.58-1.432-5.119.821z"/><path d="M60.887 23.616c.038.114 10.43 7.867 18.666 2.005 8.237-5.863 11.95-4.392 11.95-4.392l-8.467-4.43 3.29-9.052 7.487-.687-1.482-5.748-12.297 3.227-5.388 13.673-6.254 3.513-7.505 1.89z"/><path d="M61.753 49.586s2.983-13.902 4.292-17.072c1.308-3.17-.02-1.68-.866-2.444-.847-.764-4.138 15.888-3.426 19.516zm1.309-25.13c7.928 1.031 12.99-.287 14.798-6.665 2.425-8.478 2.425-9.414 4.003-11.17 1.578-1.757 10.18-4.202 10.18-4.202L80.535 4.233 75.07 15.901l-2.79 3.953-9.988 4.01.77.592z"/><path d="M67.007 50.617s3.618-2.502 0-4.01c-3.618-1.509 9.276-11.057 10.526-11.439 1.232-.382 5.004-.802 7.044 3.304 0 0-2.136 4.392-2.425 6.569-.289 2.177-.038 3.017.038 3.36.097.325-4.214 1.796-4.214 1.796l-4.657 1.03c.02.02-4.503.707-6.312-.61zm2.54 2.253c1.174.115 3.888.267 5.947-.44.192-.056.346.115.269.306-.654 1.433-.808 1.967-5.58 1.795-.116 0-.193-.095-.212-.19-.02-.192-.154-.554-.616-1.09-.135-.171 0-.4.192-.381z"/><path d="M85.77 38.701c-.808-.305-1.867-.61-2.675-.878-3.56-1.26-5.465-1.318-6.928-.63-1.5.706-2.944 1.508-4.464 2.177-1.829.82-3.56 1.394-5.716 1.298-.635-.019-1.443-.343-1.578.42-.404 2.292.27 6.36 3.676 5.825 1.751-.268 2.328-1.47 2.636-3.075.116-.592.616-1.814 1.309-1.967.846-.19 1.385.65 1.828 1.203 1.501 1.872 4.003 4.927 6.793 3.61 1.29-.612 1.963-1.891 2.328-3.209.212-.745.385-1.49.597-2.234.27-.955.808-2.291 2.136-2.349.154 0 .154-.152.058-.19z"/><path d="M81.15 41.298c-.135-.84-1.058-1.49-1.732-1.871-.462-.268-1.79-.65-2.54-.058-.577.459-.789 1.853-.5 2.521.75 1.738 2.29 2.654 3.79 1.28.52-.478 1.098-1.108.982-1.872zM69.392 42.52c.02-.21.02-.4.02-.515 0-.058-.058-.115-.116-.115-.539.02-1.058.191-1.597.306-.5.114-1 .229-1.501.382-.597.19-.193 1.527.308 1.966.635.535 1.655.115 2.155-.4.423-.44.635-.84.731-1.624z"/><path d="M82.325 50.388c-.096.19-.346.076-.366-.096-.038-.382.154-.84-.077-1.184-.019-.038-2.52.993-3.637 1.413-1.25.478-2.52.669-3.81.936-2.463.496-5.157.84-7.505-.153-.154-.057-.212-.305-.115-.439.365-.554.904-.974 1.462-1.318.02 0 .039.02.02.02a4.29 4.29 0 00-.732 1.145c1.559.478 4.215.44 7.197-.114 1.251-.23 2.463-.65 3.637-1.089.712-.267 1.424-.61 2.136-.897-.577-.115-1.135-.248-1.712-.363-.135-.038-.135-.248 0-.287.558-.114 1.154-.229 1.732-.21.461.02 1.135 0 1.54.21.827.44.538 1.776.23 2.426z"/><path d="M72.28 21.84l.096-.058a10.822 10.822 0 003.002-2.578c1.27-1.585 2.155-3.628 2.694-6.168.693-3.284 2.54-6.454 3.214-7.523 2.444-.783 7.851-2.444 9.737-2.712.231-.038.424-.019.5.038.308.249.443 1.452.5 2.158.04.325.059.669.116.993v.038c-.27.02-.596.02-.885.02-.731.019-1.636.038-2.81.114-1.539.115-2.81.287-3.752 1.299-.77.84-1.155 2.024-1.886 4.181-.135.42-.289.86-.462 1.356-.75 2.235-.827 3.82-.212 4.889.462.802 1.136.993 1.328 1.031l.116.02c1.847.247 3.194.687 4.176 1.145-.616.153-1.251.363-1.886.61a44.14 44.14 0 00-3.753 1.643c-1.25.611-2.52 1.28-3.79 1.929-2.656 1.375-5.389 2.807-6.755 3.017-1.02.153-2.521-.267-4.33-1.165a27.24 27.24 0 01-1.578-.86 31.15 31.15 0 01-1.174-.744c4.08-.917 7.601-2.578 7.794-2.673zM61.657 72.558l17.262 7.638L91.6 74.582l-.77-2.998-11.93 5.308-16.415-7.313-.828 2.979zM63.62 27.3c-4.157 13.558-4.907 18.867-3.849 27.116.231 1.89.481 3.838.693 6.072.25 2.693.674 7.868 1.212 12.069l2.656-.592a248.381 248.381 0 01-1.385-11.687c-.212-2.272-.462-4.239-.693-6.149-1.04-8.192.115-12.24 3.694-25.626 1.713.86 3.58 1.528 5.254 1.528.27 0 .52-.02.79-.058 1.827-.267 4.521-1.66 7.639-3.284 1.828-.955 3.868-2.024 5.773-2.845.924-.401 1.828-.764 2.656-1.012.673.878 1.366 1.947 2.02 3.093 1.944 3.361 3.695 7.467 4.407 9.663.789 2.463-.577 11.38-2.117 20.165-2.232 4.162-5.773 7.332-6.812 8.21-.096.077-.039.23.096.23 2.29-.191 4.465-1.28 5.562-1.91-.597 3.285-1.155 6.397-1.617 9.262-.135.802-.27 1.604-.385 2.387l2.425.649c.173-1.127.23-1.47.423-2.635.5-2.98 1.078-6.245 1.694-9.7 2.578-14.38 4.195-24.042 3.117-27.422a58.002 58.002 0 00-2.867-7.161s-2.848-4.965-3.021-5.213h.019l2.771.477-1.366-2.444c-.193-.325-1.925-3.15-7.91-4.068-.038-.324-.019-1.05.482-2.52.173-.497.327-.955.461-1.375.559-1.7.924-2.807 1.31-3.208.192-.21.557-.344 1.962-.44 1.097-.076 1.963-.095 2.656-.114 1.462-.038 2.444-.038 3.098-.821.596-.687.52-1.547.404-2.292a10.261 10.261 0 01-.096-.878c-.135-1.356-.308-3.036-1.52-3.99-.674-.536-1.52-.727-2.54-.593C88.06.548 80.38 3.05 80.053 3.145l-.442.153-.25.382c-.116.171-2.906 4.315-3.85 8.84-.73 3.438-2.078 5.596-4.387 6.97-.558.25-5.561 2.54-10.045 2.96l-3.214.306L60.35 24.8c.057.096 3.271 2.502 3.271 2.502z"/><path d="M20.802 63.812h-6.735V50.75H9.448v13.062H2.713V31.73h6.735v12.966h4.619V31.731h6.735v32.08zm21.245-4.679l-4.888 4.679h-8.313l-4.888-4.679V36.41l4.888-4.678h8.313l4.888 4.678v22.724zM30.693 37.784v19.974h4.619V37.784h-4.619zm29.308 0h-4.618v26.028h-6.735V37.784h-4.619v-6.053h15.972v6.053zm56.77 26.028h-6.736V50.75h-4.618v13.062h-6.736V31.73h6.736v12.966h4.618V31.731h6.736v32.08zm17.723-26.028h-7.582v6.054h6.428v6.053h-6.428v7.887h7.582v6.053h-14.318V31.75h14.318v6.034zm22.688 26.028h-7.024l-.693-5.958h-5.349l-.596 5.958h-7.025l4.522-32.081h10.892l5.273 32.08zm-10.026-25.99h-.789l-1.654 13.979h3.963l-1.52-13.979zm29.886 21.311l-4.888 4.679h-13.201V31.73h13.201l4.888 4.678v22.724zm-11.374-21.349v19.974h4.619V37.784h-4.619zm26.384-6.053l4.887 4.678v5.69h-6.368v-4.315h-4.619v6.512l6.6.458 4.753 4.679v9.72l-4.888 4.678h-8.313l-4.888-4.679V53.52h6.736v4.259h4.619v-6.646l-6.236-.496-4.753-4.679v-9.529l4.887-4.678 7.583-.019z"/><path opacity=".5" d="M117.202 73.212h-3.884l.01 6.571h-.76V72.55h4.634v.662zm1.812 6.623a2.899 2.899 0 01-1.427-.351 2.66 2.66 0 01-1-.992 2.796 2.796 0 01-.364-1.426c0-.53.121-1.006.364-1.426.244-.42.577-.748 1-.982a2.9 2.9 0 011.427-.351c.527 0 1.002.117 1.427.351.423.234.752.562.988.982.244.42.365.895.365 1.426 0 .53-.121 1.005-.365 1.426-.236.42-.565.75-.988.992-.425.234-.9.351-1.427.351zm0-.65c.388 0 .735-.087 1.041-.26.312-.178.556-.43.729-.754a2.31 2.31 0 00.26-1.105 2.31 2.31 0 00-.26-1.106 1.8 1.8 0 00-.729-.744 2.022 2.022 0 00-1.041-.268c-.389 0-.74.09-1.052.268a1.88 1.88 0 00-.729.744c-.174.324-.26.693-.26 1.106 0 .413.086.782.26 1.105.18.324.423.576.729.755.312.172.663.258 1.052.258zm7.182-4.878c.513 0 .979.117 1.395.351.416.227.743.551.978.971.237.42.355.9.355 1.437 0 .544-.118 1.026-.355 1.446-.235.42-.562.748-.978.982a2.825 2.825 0 01-1.395.341c-.444 0-.848-.09-1.208-.269a2.332 2.332 0 01-.875-.806v3.028h-.739v-7.44h.708v1.075c.222-.358.514-.634.874-.827.369-.193.781-.29 1.24-.29zm-.052 4.877a2.12 2.12 0 001.041-.258c.312-.18.556-.43.729-.755.18-.323.271-.692.271-1.105 0-.413-.091-.779-.271-1.095a1.867 1.867 0 00-.729-.755 2.056 2.056 0 00-1.041-.268c-.389 0-.74.09-1.052.268-.306.18-.548.43-.729.755-.174.316-.26.681-.26 1.095 0 .413.086.782.26 1.105.181.324.423.576.729.755.312.172.663.258 1.052.258zm8.382-4.836v5.435h-.677v-1.798h-1.926l-1.27 1.798h-.802l1.364-1.9c-.423-.118-.75-.318-.979-.6-.229-.283-.343-.64-.343-1.075 0-.606.208-1.068.624-1.384.417-.317.986-.476 1.708-.476h2.301zm-3.884 1.88c0 .807.517 1.21 1.552 1.21h1.655v-2.439h-1.603c-1.07 0-1.604.41-1.604 1.23zm10.126-1.88v5.435h-.74V77.52c-.631.276-1.252.414-1.863.414-.66 0-1.173-.148-1.541-.444-.368-.304-.552-.755-.552-1.354v-1.788h.74v1.746c0 .407.131.717.395.93.264.207.628.31 1.094.31.513 0 1.09-.134 1.727-.403v-2.583h.74zm2.099 0h.74v4.32l3.655-4.32h.656v5.435h-.74v-4.319l-3.644 4.32h-.667v-5.436zm11.96 2.945h-4.582c.042.565.26 1.023.656 1.374.396.345.895.517 1.5.517.34 0 .652-.058.936-.176.286-.124.531-.303.74-.537l.417.475a2.34 2.34 0 01-.917.662c-.361.151-.76.227-1.198.227-.562 0-1.062-.117-1.498-.351a2.609 2.609 0 01-1.01-.992 2.787 2.787 0 01-.365-1.426c0-.53.115-1.006.343-1.426.236-.42.556-.748.958-.982.41-.234.868-.351 1.375-.351.506 0 .962.117 1.364.351.402.234.719.562.948.982.229.413.343.888.343 1.426l-.01.227zm-2.645-2.356c-.528 0-.971.169-1.333.507-.354.33-.555.764-.604 1.301h3.884c-.048-.537-.253-.97-.614-1.302-.354-.337-.799-.506-1.333-.506zm11.827-1.725h-3.883l.01 6.571h-.76V72.55h4.633v.662zm1.813 6.623a2.896 2.896 0 01-1.427-.351 2.645 2.645 0 01-1-.992 2.796 2.796 0 01-.364-1.426c0-.53.121-1.006.364-1.426a2.57 2.57 0 011-.982 2.897 2.897 0 011.427-.351c.526 0 1.002.117 1.425.351.425.234.754.562.99.982.242.42.365.895.365 1.426 0 .53-.123 1.005-.365 1.426-.236.42-.565.75-.99.992a2.894 2.894 0 01-1.425.351zm0-.65c.387 0 .735-.087 1.041-.26.312-.178.555-.43.729-.754a2.31 2.31 0 00.26-1.105 2.31 2.31 0 00-.26-1.106 1.805 1.805 0 00-.729-.744 2.025 2.025 0 00-1.041-.268c-.389 0-.74.09-1.053.268-.305.172-.548.42-.728.744-.174.324-.26.693-.26 1.106 0 .413.086.782.26 1.105.18.324.423.576.728.755.313.172.664.258 1.053.258zm8.806-4.837v5.435h-.739V75h-2.624l-.072 1.344c-.056 1.13-.188 1.997-.397 2.603-.208.607-.579.91-1.113.91-.147 0-.324-.028-.531-.083l.052-.63c.124.027.211.041.26.041.284 0 .5-.13.645-.393a2.66 2.66 0 00.292-.97c.048-.387.091-.896.125-1.53l.093-1.943h4.009zm4.361 5.487a2.894 2.894 0 01-1.425-.351 2.638 2.638 0 01-1-.992 2.797 2.797 0 01-.365-1.426c0-.53.122-1.006.365-1.426.243-.42.575-.748 1-.982a2.895 2.895 0 011.425-.351c.528 0 1.004.117 1.427.351.423.234.753.562.99.982.242.42.365.895.365 1.426 0 .53-.123 1.005-.365 1.426-.237.42-.567.75-.99.992a2.896 2.896 0 01-1.427.351zm0-.65a2.09 2.09 0 001.043-.26c.312-.178.554-.43.729-.754a2.31 2.31 0 00.26-1.105 2.31 2.31 0 00-.26-1.106 1.811 1.811 0 00-.729-.744 2.027 2.027 0 00-1.043-.268c-.387 0-.738.09-1.051.268-.305.172-.549.42-.729.744a2.31 2.31 0 00-.26 1.106c0 .413.087.782.26 1.105.18.324.424.576.729.755.313.172.664.258 1.051.258zm7.849-2.212c.744.172 1.115.616 1.115 1.333 0 .475-.177.84-.531 1.095-.355.255-.881.382-1.583.382h-2.488v-5.435h2.415c.625 0 1.115.12 1.468.362.354.241.531.586.531 1.033 0 .296-.083.551-.25.765a1.423 1.423 0 01-.677.465zm-2.77-.207h1.646c.423 0 .747-.08.969-.238.229-.158.343-.389.343-.692 0-.303-.114-.53-.343-.682-.222-.151-.546-.227-.969-.227h-1.646v1.84zm1.739 2.439c.472 0 .827-.076 1.062-.228.237-.151.355-.389.355-.713 0-.323-.108-.561-.322-.713-.216-.158-.556-.237-1.021-.237h-1.813v1.89h1.739zm6.18-2.935c.687.007 1.211.159 1.572.455.362.296.542.723.542 1.281 0 .579-.195 1.023-.584 1.333-.389.31-.943.462-1.665.455l-2.166-.01v-5.436h.739v1.901l1.562.021zm3.03-1.922h.739v5.435h-.739v-5.435zm-3.208 4.888c.507.007.889-.093 1.146-.3.264-.213.396-.524.396-.93 0-.4-.128-.696-.385-.889-.258-.192-.642-.292-1.157-.3l-1.384-.02v2.418l1.384.02z"/></symbol><symbol viewBox="0 0 20 20" id="mail" xmlns="http://www.w3.org/2000/svg"><g clip-path="url(#clip0_57_1179)"><path d="M2 1.667h16c1.1 0 2 .937 2 2.083v12.5c0 1.146-.9 2.084-2 2.084H2c-1.1 0-2-.938-2-2.084V3.75c0-1.146.9-2.083 2-2.083z"/><path d="M20 4.167l-10 6.667L0 4.167" stroke-width="2" stroke-linecap="round" stroke-linejoin="round"/></g><defs><clipPath><path d="M0 0h20v20H0z"/></clipPath></defs></symbol><symbol viewBox="0 0 30 30" id="phone" xmlns="http://www.w3.org/2000/svg"><g clip-path="url(#clip0_42_269)"><path d="M17.5 6.91a7.075 7.075 0 015.59 5.59M17.5 1.25a12.736 12.736 0 0111.25 11.236" stroke-width="2" stroke-linecap="round" stroke-linejoin="round"/><path d="M27.5 23.089v4.14a2.758 2.758 0 01-1.88 2.626 2.769 2.769 0 01-1.135.134 27.398 27.398 0 01-11.933-4.237 26.935 26.935 0 01-8.296-8.28A27.274 27.274 0 01.011 5.509a2.755 2.755 0 011.637-2.773A2.77 2.77 0 012.763 2.5H6.91a2.769 2.769 0 012.765 2.374c.175 1.325.5 2.625.968 3.877a2.754 2.754 0 01-.622 2.912l-1.756 1.753a22.102 22.102 0 008.296 8.28l1.756-1.753a2.766 2.766 0 012.918-.621c1.254.467 2.557.791 3.885.966a2.757 2.757 0 012.378 2.801z"/></g><defs><clipPath><path d="M0 0h30v30H0z"/></clipPath></defs></symbol><symbol viewBox="0 0 26 29" id="space" xmlns="http://www.w3.org/2000/svg"><path d="M1.745 1.308A.706.706 0 012.02.974a.752.752 0 01.426-.117c1.655.038 2.91.33 4.159.622 5.137 1.2 7.797 4.604 9.541 8.682l5.187 1.211c.443.104.859.326 1.2.641.34.316.595.712.732 1.146l1.706 5.38c.063.2.075.407.034.604-.04.196-.132.375-.265.52a1.083 1.083 0 01-.499.303c-.193.055-.401.06-.605.012l-5.165-1.206.947 1.354c.252.362.358.797.293 1.21-.064.412-.294.77-.639.991l-2.922 1.885c-.171.11-.365.184-.57.217-.206.033-.42.025-.629-.024a1.764 1.764 0 01-.59-.26 1.814 1.814 0 01-.465-.459l-.947-1.354-.793 5.052a1.077 1.077 0 01-.722.86 1.19 1.19 0 01-.6.04 1.322 1.322 0 01-.569-.258l-4.536-3.55a2.689 2.689 0 01-.829-1.085 2.436 2.436 0 01-.163-1.31l.797-5.079c-3.26-3.095-5.545-6.76-4.76-11.755.187-1.227.38-2.453.971-3.939zm4.89 8.65c.393.092.796.068 1.157-.07.361-.137.664-.381.87-.702.207-.32.308-.702.29-1.097a2.133 2.133 0 00-.388-1.124 2.26 2.26 0 00-.936-.77 2.08 2.08 0 00-1.168-.158c-.387.062-.737.239-1.006.508a1.807 1.807 0 00-.505 1.002c-.081.517.05 1.06.367 1.512.316.453.79.776 1.318.899z"/></symbol><symbol viewBox="0 0 29 28" id="telegram" xmlns="http://www.w3.org/2000/svg"><path d="M26.365 5.392L22.66 22.826c-.28 1.23-1.008 1.537-2.044.957l-5.645-4.15-2.723 2.614c-.302.3-.554.552-1.135.552l.406-5.737L21.98 7.63c.455-.405-.098-.63-.706-.225L8.34 15.531l-5.567-1.74c-1.211-.377-1.233-1.208.252-1.787L24.803 3.63c1.008-.377 1.89.224 1.562 1.76z"/></symbol></svg>