<svg width="30" height="30" fill="none" xmlns="http://www.w3.org/2000/svg"><g clip-path="url(#clip0_42_269)"><path d="M17.5 6.91a7.075 7.075 0 015.59 5.59M17.5 1.25a12.736 12.736 0 0111.25 11.236" stroke="#B52B46" stroke-width="2" stroke-linecap="round" stroke-linejoin="round"/><path d="M27.5 23.089v4.14a2.758 2.758 0 01-1.88 2.626 2.769 2.769 0 01-1.135.134 27.398 27.398 0 01-11.933-4.237 26.935 26.935 0 01-8.296-8.28A27.274 27.274 0 01.011 5.509a2.755 2.755 0 011.637-2.773A2.77 2.77 0 012.763 2.5H6.91a2.769 2.769 0 012.765 2.374c.175 1.325.5 2.625.968 3.877a2.754 2.754 0 01-.622 2.912l-1.756 1.753a22.102 22.102 0 008.296 8.28l1.756-1.753a2.766 2.766 0 012.918-.621c1.254.467 2.557.791 3.885.966a2.757 2.757 0 012.378 2.801z" fill="#B52B46"/></g><defs><clipPath id="clip0_42_269"><path fill="#fff" d="M0 0h30v30H0z"/></clipPath></defs></svg>