<svg width="26" height="29" fill="none" xmlns="http://www.w3.org/2000/svg"><path d="M1.745 1.308A.706.706 0 012.02.974a.752.752 0 01.426-.117c1.655.038 2.91.33 4.159.622 5.137 1.2 7.797 4.604 9.541 8.682l5.187 1.211a2.679 2.679 0 011.932 1.787l1.706 5.38c.063.2.075.407.034.604a1.09 1.09 0 01-.265.52 1.083 1.083 0 01-.499.303c-.193.055-.401.06-.605.012l-5.165-1.206.947 1.354c.252.362.358.797.293 1.21-.064.412-.294.77-.639.991l-2.922 1.885a1.49 1.49 0 01-.57.217 1.63 1.63 0 01-.629-.024 1.764 1.764 0 01-.59-.26 1.814 1.814 0 01-.465-.459l-.947-1.354-.793 5.052a1.077 1.077 0 01-.722.86 1.19 1.19 0 01-.6.04 1.322 1.322 0 01-.569-.258l-4.536-3.55a2.689 2.689 0 01-.829-1.085 2.436 2.436 0 01-.163-1.31l.797-5.079c-3.26-3.095-5.545-6.76-4.76-11.755.187-1.227.38-2.453.971-3.939zm4.89 8.65c.393.092.796.068 1.157-.07.361-.137.664-.381.87-.702.207-.32.308-.702.29-1.097a2.133 2.133 0 00-.388-1.124 2.26 2.26 0 00-.936-.77 2.08 2.08 0 00-1.168-.158 1.824 1.824 0 00-1.006.508 1.807 1.807 0 00-.505 1.002c-.081.517.05 1.06.367 1.512.316.453.79.776 1.318.899z" fill="#B52B46"/></svg>