<svg width="281" height="16" fill="none" xmlns="http://www.w3.org/2000/svg"><path d="M280.707 8.707a1 1 0 000-1.414L274.343.929a1 1 0 10-1.414 1.414L278.586 8l-5.657 5.657a1 1 0 101.414 1.414l6.364-6.364zM0 9h2V7H0v2zm6 0h4V7H6v2zm8 0h4V7h-4v2zm8 0h4V7h-4v2zm8 0h4V7h-4v2zm8 0h4V7h-4v2zm8 0h4V7h-4v2zm8 0h4V7h-4v2zm8 0h4V7h-4v2zm8 0h4V7h-4v2zm8 0h4V7h-4v2zm8 0h4V7h-4v2zm8 0h4V7h-4v2zm8 0h4V7h-4v2zm8 0h4V7h-4v2zm8 0h4V7h-4v2zm8 0h4V7h-4v2zm8 0h4V7h-4v2zm8 0h4V7h-4v2zm8 0h4V7h-4v2zm8 0h4V7h-4v2zm8 0h4V7h-4v2zm8 0h4V7h-4v2zm8 0h4V7h-4v2zm8 0h4V7h-4v2zm8 0h4V7h-4v2zm8 0h4V7h-4v2zm8 0h4V7h-4v2zm8 0h4V7h-4v2zm8 0h4V7h-4v2zm8 0h4V7h-4v2zm8 0h4V7h-4v2zm8 0h4V7h-4v2zm8 0h4V7h-4v2zm8 0h4V7h-4v2zm8 0h2V7h-2v2z" fill="#fff" fill-opacity=".24"/></svg>