<svg width="28" height="28" fill="none" xmlns="http://www.w3.org/2000/svg"><path fill-rule="evenodd" clip-rule="evenodd" d="M16.7 16.7c-2.2 2.27-2.35 5.1-2.55 11.3 5.78 0 9.77-.02 11.83-2.02 2-2.06 2.02-6.24 2.02-11.83-6.2.2-9.03.35-11.3 2.55zM13.85 28c-5.78 0-9.77-.02-11.83-2.02C.02 23.92 0 19.74 0 14.15c6.2.2 9.03.35 11.3 2.55 2.2 2.27 2.35 5.1 2.55 11.3zM11.3 11.3C9.03 13.5 6.2 13.65 0 13.85 0 8.26.02 4.08 2.02 2.02 4.08.02 8.08 0 13.85 0c-.2 6.2-.35 9.03-2.55 11.3zM14.15 0c.19 6.2.35 9.03 2.55 11.3 2.27 2.2 5.1 2.35 11.3 2.55 0-5.59-.02-9.77-2.02-11.83C23.92.02 19.93 0 14.15 0z" fill="#fff"/></svg>