<svg width="28" height="28" viewBox="0 0 28 28" fill="none" xmlns="http://www.w3.org/2000/svg">
<path fill-rule="evenodd" clip-rule="evenodd" d="M16.7 16.7C14.5 18.97 14.35 21.8 14.15 28C19.93 28 23.92 27.98 25.98 25.98C27.98 23.92 28 19.74 28 14.15C21.8 14.35 18.97 14.5 16.7 16.7ZM13.85 28C8.07 28 4.08 27.98 2.02 25.98C0.02 23.92 0 19.74 0 14.15C6.2 14.35 9.03 14.5 11.3 16.7C13.5 18.97 13.65 21.8 13.85 28ZM11.3 11.3C9.03 13.5 6.2 13.65 0 13.85C0 8.26 0.02 4.08 2.02 2.02C4.08 0.02 8.08 0 13.85 0C13.65 6.2 13.5 9.03 11.3 11.3ZM14.15 0C14.34 6.2 14.5 9.03 16.7 11.3C18.97 13.5 21.8 13.65 28 13.85C28 8.26 27.98 4.08 25.98 2.02C23.92 0.02 19.93 0 14.15 0Z" fill="white"/>
</svg>
