<svg width="200" height="86" viewBox="0 0 200 86" fill="none" xmlns="http://www.w3.org/2000/svg">
<path d="M137.189 29.0579H95.9684V32.3423C95.3527 30.7191 94.6791 29.1342 93.9671 27.6638C93.9671 27.6638 91.119 22.6989 90.9458 22.4507H90.9651L93.7361 22.928L92.3699 20.4839C92.1774 20.1592 90.4454 17.3331 84.4607 16.4165C84.4222 16.0918 84.4415 15.3662 84.9418 13.8958C85.115 13.3994 85.2689 12.941 85.4037 12.5209C85.9617 10.8214 86.3273 9.71388 86.7122 9.31286C86.9047 9.10281 87.2702 8.96915 88.6751 8.87367C89.772 8.79728 90.6379 8.77818 91.3307 8.75909C92.7932 8.73999 93.7747 8.7209 94.4289 7.93798C95.0255 7.25053 94.9486 6.39122 94.833 5.6465C94.7946 5.37916 94.7561 5.09272 94.7369 4.76809C94.6021 3.4123 94.4289 1.73187 93.2166 0.777094C92.543 0.242414 91.6963 0.0514568 90.6765 0.185127C88.0208 0.547944 80.3426 3.04948 80.0153 3.14495L79.5728 3.29772L79.3227 3.67964C79.2071 3.8515 76.4168 7.99527 75.4739 12.5209C74.7426 15.9582 73.3956 18.116 71.0863 19.4909C70.5282 19.7391 65.5249 22.0306 61.0411 22.4507L57.8273 22.7563L60.3098 24.7994C60.4446 24.9141 63.639 27.3201 63.639 27.3201C63.3119 28.3704 63.0039 29.3825 62.7346 30.3373V29.0769H41.374V32.2087L38.0833 29.0769H27.557L23.4773 32.9724V29.0769H0V66.5045H23.4966V62.609L27.5762 66.5045H38.0641L44.5684 60.2984V40.4579H45.9732V66.4854H58.0968V40.4579H60.1367C59.1552 45.652 59.136 49.5093 59.7518 54.436C59.9827 56.3265 60.2329 58.2743 60.4446 60.5084C60.6947 63.201 61.118 68.3758 61.6569 72.5769L78.9184 80.2152L91.6001 74.601C91.7733 73.4744 91.831 73.1307 92.0234 71.9658C92.5238 68.9869 93.1011 65.7215 93.7169 62.2652C94.6021 57.3385 95.3719 52.9656 95.9684 49.2038V66.5235H145.944L146.541 60.5657H147.06L147.753 66.5235H173.232L178.12 61.8451L183.008 66.5235H193.496L200 60.3174V48.3063L196.382 44.7545H199.616V35.2639L193.111 29.0579H183.354L178.273 33.9081L173.232 29.0579H156.24V41.47L154.2 29.0579H138.67L137.189 40.4579H137.053L137.189 29.0579ZM179.737 46.0911L179.582 45.9384V36.4096L179.737 36.2569V46.0911Z" fill="#1E1E1E"/>
<path d="M65.2167 26.7471C65.2167 26.7471 69.8737 30.9482 80.6117 25.2004C91.3497 19.4526 90.4261 23.3482 90.4261 23.3482C90.4261 23.3482 98.2775 35.1302 94.0439 52.8701C92.5621 59.0953 91.4075 66.6954 90.5607 73.9135L78.9183 78.7829L62.9075 72.3286C60.3288 54.646 58.8278 33.2014 65.2167 26.7471Z" fill="#BE4059"/>
<path d="M64.3124 29.5161C64.3124 29.5161 68.1996 31.7693 73.0683 31.9794C73.0683 31.9794 76.1665 30.3562 73.0683 38.9111L65.2168 43.8378C65.2168 43.8378 63.0423 50.4067 63.3502 54.054C63.5812 56.6511 64.9667 66.5043 65.9288 72.9969C66.3137 75.594 84.6723 81.1699 85.4035 75.8995C86.3079 69.426 87.3086 61.1958 87.3086 56.6701C87.3086 48.4781 90.0989 42.8258 89.7911 40.477C89.4832 38.1282 88.1554 38.6056 86.2887 29.707C86.1541 29.0196 85.8462 28.3703 87.5588 27.1864C89.4062 25.8879 90.6378 25.2959 90.6378 24.4939C90.6378 23.6919 88.4633 21.2095 88.4633 21.2095C88.4633 21.2095 73.7418 29.2106 69.4313 28.6949C65.1206 28.1793 64.8513 27.2628 64.3124 29.5161Z" fill="#B52B46"/>
<path d="M60.8867 23.6158C60.9252 23.7303 71.3168 31.4832 79.5532 25.6208C87.7895 19.7584 91.5035 21.2288 91.5035 21.2288L83.0363 16.7986L86.3269 7.74726L93.8127 7.05981L92.3309 1.31201L80.0343 4.53918L74.6459 18.2116L68.3917 21.7253L60.8867 23.6158Z" fill="#006641"/>
<path d="M61.7534 49.5857C61.7534 49.5857 64.7362 35.684 66.0448 32.5142C67.3533 29.3443 66.0256 30.8338 65.1788 30.0699C64.332 29.3062 61.0413 45.9575 61.7534 49.5857ZM63.062 24.4559C70.9903 25.487 76.0514 24.1694 77.8604 17.7914C80.2851 9.31294 80.2851 8.37725 81.8631 6.62045C83.4411 4.86364 92.043 2.4194 92.043 2.4194L80.5352 4.23348L75.07 15.901L72.2797 19.8538L62.2922 23.8639L63.062 24.4559Z" fill="white"/>
<path d="M67.0071 50.6167C67.0071 50.6167 70.625 48.1152 67.0071 46.6067C63.3893 45.098 76.2826 35.5503 77.5335 35.1683C78.765 34.7864 82.5368 34.3663 84.5767 38.4718C84.5767 38.4718 82.4406 42.8639 82.1519 45.0408C81.8633 47.2177 82.1135 48.0579 82.1905 48.4016C82.2867 48.7262 77.9761 50.1966 77.9761 50.1966L73.3191 51.2278C73.3383 51.2469 68.816 51.9344 67.0071 50.6167ZM69.5473 52.87C70.7212 52.9846 73.4346 53.1374 75.4937 52.4308C75.686 52.3735 75.84 52.5454 75.763 52.7364C75.1088 54.1685 74.9548 54.7032 70.1823 54.5313C70.0669 54.5313 69.9899 54.4359 69.9707 54.3404C69.9515 54.1494 69.8167 53.7866 69.3549 53.2519C69.2201 53.08 69.3549 52.8509 69.5473 52.87Z" fill="#8B2739"/>
<path d="M85.7697 38.7014C84.9615 38.3958 83.9032 38.0903 83.0948 37.823C79.5348 36.5627 77.6297 36.5053 76.1672 37.1928C74.6662 37.8993 73.2228 38.7014 71.7026 39.3697C69.8745 40.1909 68.1425 40.7637 65.9873 40.6682C65.3522 40.6491 64.544 40.3245 64.4093 41.0884C64.0052 43.3798 64.6786 47.4472 68.0848 46.9125C69.836 46.6452 70.4133 45.4422 70.7212 43.8382C70.8366 43.2462 71.337 42.024 72.0297 41.8713C72.8765 41.6803 73.4153 42.5205 73.858 43.0743C75.359 44.9457 77.8606 48.001 80.651 46.6833C81.9403 46.0723 82.6138 44.7929 82.9794 43.4753C83.1911 42.7305 83.3643 41.9858 83.576 41.2411C83.8454 40.2864 84.3842 38.9496 85.7121 38.8923C85.866 38.8923 85.8659 38.7396 85.7697 38.7014Z" fill="#1E1E1E"/>
<path d="M81.1502 41.298C81.0155 40.4579 80.0919 39.8086 79.4183 39.4267C78.9564 39.1594 77.6286 38.7775 76.8781 39.3694C76.3009 39.8277 76.0891 41.2217 76.3778 41.89C77.1283 43.6278 78.6677 44.5443 80.1687 43.1694C80.6884 42.692 81.2658 42.0619 81.1502 41.298ZM69.3923 42.5202C69.4115 42.3102 69.4115 42.1192 69.4115 42.0046C69.4115 41.9473 69.3539 41.89 69.2961 41.89C68.7573 41.9091 68.2376 42.081 67.6989 42.1955C67.1985 42.3102 66.6982 42.4248 66.1979 42.5775C65.6013 42.7684 66.0054 44.1052 66.5057 44.5443C67.1407 45.0791 68.1607 44.6589 68.6611 44.1433C69.0844 43.7042 69.2961 43.3032 69.3923 42.5202Z" fill="white"/>
<path d="M82.3251 50.3876C82.2289 50.5786 81.9786 50.464 81.9594 50.2921C81.921 49.9103 82.1134 49.452 81.8824 49.1082C81.8632 49.0701 79.3615 50.1013 78.2454 50.5214C76.9945 50.9988 75.7244 51.1897 74.4351 51.457C71.972 51.9535 69.2777 52.2973 66.9301 51.3043C66.7761 51.247 66.7184 50.9988 66.8146 50.865C67.1802 50.3113 67.7191 49.8911 68.2771 49.5475C68.2964 49.5475 68.3156 49.5665 68.2964 49.5665C67.9692 49.9294 67.7575 50.2921 67.5651 50.7123C69.1239 51.1897 71.7795 51.1515 74.7623 50.5978C76.0131 50.3685 77.2254 49.9485 78.3993 49.5092C79.1113 49.2419 79.8234 48.8982 80.5354 48.6117C79.9581 48.4972 79.4 48.3635 78.8228 48.249C78.688 48.2107 78.688 48.0007 78.8228 47.9625C79.3808 47.848 79.9773 47.7334 80.5546 47.7525C81.0165 47.7716 81.69 47.7525 82.0941 47.9625C82.9216 48.4017 82.633 49.7384 82.3251 50.3876Z" fill="#1E1E1E"/>
<path d="M72.2798 21.8396L72.376 21.7824C73.5499 21.0949 74.5505 20.2356 75.378 19.2045C76.6481 17.6195 77.5333 15.5763 78.0721 13.0365C78.7649 9.75207 80.6123 6.58219 81.2859 5.51282C83.7298 4.7299 89.1373 3.06858 91.0232 2.80124C91.2541 2.76305 91.4465 2.78214 91.5235 2.83943C91.8314 3.08768 91.9661 4.29071 92.0239 4.99724C92.0623 5.32187 92.0815 5.66559 92.1393 5.99022V6.02841C91.8699 6.04751 91.5428 6.04751 91.2541 6.04751C90.5229 6.06659 89.6183 6.08569 88.4445 6.16208C86.905 6.27665 85.6349 6.44851 84.692 7.46059C83.9222 8.3008 83.5373 9.48473 82.8061 11.6425C82.6714 12.0626 82.5174 12.5019 82.3442 12.9983C81.5938 15.2326 81.5168 16.8175 82.1325 17.8868C82.5944 18.6889 83.268 18.8798 83.4604 18.918L83.5759 18.9371C85.4232 19.1854 86.7703 19.6245 87.7518 20.0829C87.1359 20.2356 86.5009 20.4456 85.8659 20.6939C84.6535 21.1521 83.4027 21.706 82.1133 22.3362C80.8624 22.9472 79.5924 23.6155 78.3223 24.2648C75.6667 25.6397 72.9341 27.0718 71.5678 27.282C70.5479 27.4347 69.0469 27.0146 67.2379 26.1171C66.7375 25.8688 66.218 25.5824 65.66 25.2578C65.2558 25.0096 64.8517 24.7613 64.4861 24.5131C68.5658 23.5964 72.0873 21.9351 72.2798 21.8396ZM61.6572 72.5578L78.9189 80.1961L91.6004 74.582L90.8308 71.5839L78.8997 76.8925L62.4848 69.5788L61.6572 72.5578ZM63.6201 27.301C59.4634 40.8589 58.713 46.1676 59.7713 54.4169C60.0023 56.3074 60.2524 58.2551 60.4641 60.4893C60.7143 63.1818 61.1377 68.3568 61.6764 72.5578L64.3321 71.9658C63.6585 67.211 63.216 63.1818 62.9465 60.2793C62.7349 58.0069 62.4848 56.04 62.2538 54.1305C61.2147 45.9384 62.3692 41.8902 65.9485 28.504C67.6613 29.3634 69.5279 30.0316 71.2021 30.0316C71.4715 30.0316 71.7217 30.0126 71.9911 29.9744C73.8193 29.707 76.5134 28.3131 79.6309 26.69C81.459 25.7352 83.4989 24.6658 85.404 23.8447C86.3277 23.4437 87.2321 23.0809 88.0597 22.8327C88.7332 23.711 89.426 24.7803 90.0802 25.9261C92.0239 29.287 93.775 33.3926 94.487 35.5886C95.276 38.0519 93.9098 46.9696 92.3702 55.7536C90.138 59.9164 86.5971 63.0863 85.558 63.9647C85.4618 64.0411 85.5194 64.1939 85.6542 64.1939C87.9442 64.003 90.1187 62.9145 91.2157 62.2843C90.6191 65.5688 90.061 68.6814 89.5991 71.5457C89.4644 72.3477 89.3298 73.1497 89.2142 73.9327L91.639 74.582C91.8122 73.4552 91.8699 73.1116 92.0623 71.9467C92.5627 68.9678 93.14 65.7025 93.7558 62.2461C96.3344 47.867 97.9509 38.2046 96.8732 34.8247C96.065 32.3423 95.0835 29.898 94.006 27.6638C94.006 27.6638 91.1579 22.6989 90.9847 22.4507H91.0039L93.775 22.928L92.4088 20.4839C92.2163 20.1592 90.4843 17.3331 84.4995 16.4165C84.4611 16.0918 84.4803 15.3662 84.9807 13.8958C85.1539 13.3994 85.3078 12.941 85.4424 12.5209C86.0005 10.8214 86.3662 9.71388 86.7511 9.31286C86.9435 9.10281 87.3091 8.96915 88.7139 8.87367C89.8108 8.79728 90.6768 8.77818 91.3695 8.75909C92.8321 8.72091 93.8135 8.7209 94.4678 7.93798C95.0643 7.25053 94.9873 6.39122 94.8719 5.6465C94.8334 5.37916 94.795 5.09272 94.7757 4.76809C94.641 3.4123 94.4678 1.73187 93.2554 0.777094C92.5819 0.242414 91.7352 0.0514568 90.7152 0.185127C88.0597 0.547944 80.3814 3.04948 80.0542 3.14495L79.6117 3.29772L79.3614 3.67964C79.246 3.8515 76.4557 7.99527 75.5128 12.5209C74.7814 15.9582 73.4344 18.116 71.1251 19.4909C70.5671 19.7391 65.5638 22.0306 61.0799 22.4507L57.8662 22.7563L60.3487 24.7994C60.4064 24.8949 63.6201 27.301 63.6201 27.301Z" fill="#1E1E1E"/>
<path d="M20.802 63.8117H14.0667V50.7503H9.4482V63.8117H2.71289V31.731H9.4482V44.697H14.0667V31.731H20.802V63.8117ZM42.0471 59.1333L37.1592 63.8117H28.8458L23.958 59.1333V36.4095L28.8458 31.731H37.1592L42.0471 36.4095V59.1333ZM30.6933 37.7844V57.7584H35.3117V37.7844H30.6933ZM60.0014 37.7844H55.383V63.8117H48.6476V37.7844H44.0292V31.731H60.0014V37.7844ZM116.771 63.8117H110.035V50.7503H105.417V63.8117H98.6813V31.731H105.417V44.697H110.035V31.731H116.771V63.8117ZM134.494 37.7844H126.912V43.8377H133.34V49.891H126.912V57.7775H134.494V63.8309H120.176V31.75H134.494V37.7844ZM157.182 63.8117H150.158L149.465 57.8539H144.116L143.52 63.8117H136.495L141.017 31.731H151.909L157.182 63.8117ZM147.156 37.8225H146.367L144.713 51.8006H148.676L147.156 37.8225ZM177.042 59.1333L172.154 63.8117H158.953V31.731H172.154L177.042 36.4095V59.1333ZM165.668 37.7844V57.7584H170.287V37.7844H165.668ZM192.052 31.731L196.939 36.4095V42.0999H190.571V37.7844H185.952V44.296L192.552 44.7542L197.305 49.4327V59.1524L192.417 63.8309H184.104L179.216 59.1524V53.5192H185.952V57.7775H190.571V51.1322L184.335 50.6357L179.582 45.9572V36.4285L184.469 31.75L192.052 31.731Z" fill="white"/>
<path opacity="0.5" d="M117.202 73.2116H113.318L113.328 79.7833H112.568V72.5503H117.202V73.2116ZM119.014 79.835C118.486 79.835 118.011 79.718 117.587 79.4837C117.164 79.2426 116.831 78.912 116.587 78.4918C116.344 78.0715 116.223 77.5962 116.223 77.0658C116.223 76.5354 116.344 76.0601 116.587 75.6399C116.831 75.2196 117.164 74.8925 117.587 74.6582C118.011 74.424 118.486 74.3069 119.014 74.3069C119.541 74.3069 120.016 74.424 120.441 74.6582C120.864 74.8925 121.193 75.2196 121.429 75.6399C121.673 76.0601 121.794 76.5354 121.794 77.0658C121.794 77.5962 121.673 78.0715 121.429 78.4918C121.193 78.912 120.864 79.2426 120.441 79.4837C120.016 79.718 119.541 79.835 119.014 79.835ZM119.014 79.1841C119.402 79.1841 119.749 79.098 120.055 78.9258C120.367 78.7466 120.611 78.4952 120.784 78.1714C120.957 77.8477 121.044 77.4791 121.044 77.0658C121.044 76.6525 120.957 76.2839 120.784 75.9602C120.611 75.6364 120.367 75.3884 120.055 75.2162C119.749 75.0371 119.402 74.9476 119.014 74.9476C118.625 74.9476 118.274 75.0371 117.962 75.2162C117.656 75.3884 117.413 75.6364 117.233 75.9602C117.059 76.2839 116.973 76.6525 116.973 77.0658C116.973 77.4791 117.059 77.8477 117.233 78.1714C117.413 78.4952 117.656 78.7466 117.962 78.9258C118.274 79.098 118.625 79.1841 119.014 79.1841ZM126.196 74.3069C126.709 74.3069 127.175 74.424 127.591 74.6582C128.007 74.8855 128.334 75.2093 128.569 75.6295C128.806 76.0497 128.924 76.5285 128.924 77.0658C128.924 77.61 128.806 78.0922 128.569 78.5124C128.334 78.9326 128.007 79.2598 127.591 79.494C127.182 79.7214 126.716 79.835 126.196 79.835C125.752 79.835 125.348 79.7455 124.988 79.5664C124.634 79.3804 124.343 79.1118 124.113 78.7604V81.7879H123.374V74.3482H124.082V75.4229C124.304 75.0647 124.596 74.7892 124.956 74.5962C125.325 74.4034 125.737 74.3069 126.196 74.3069ZM126.144 79.1841C126.525 79.1841 126.873 79.098 127.185 78.9258C127.497 78.7466 127.741 78.4952 127.914 78.1714C128.094 77.8477 128.185 77.4791 128.185 77.0658C128.185 76.6525 128.094 76.2874 127.914 75.9706C127.741 75.6467 127.497 75.3953 127.185 75.2162C126.873 75.0371 126.525 74.9476 126.144 74.9476C125.755 74.9476 125.404 75.0371 125.092 75.2162C124.786 75.3953 124.544 75.6467 124.363 75.9706C124.189 76.2874 124.103 76.6525 124.103 77.0658C124.103 77.4791 124.189 77.8477 124.363 78.1714C124.544 78.4952 124.786 78.7466 125.092 78.9258C125.404 79.098 125.755 79.1841 126.144 79.1841ZM134.526 74.3482V79.7833H133.849V77.9854H132.131H131.923L130.653 79.7833H129.851L131.215 77.8821C130.792 77.765 130.465 77.5652 130.236 77.2828C130.007 77.0004 129.893 76.6421 129.893 76.2082C129.893 75.602 130.101 75.1404 130.517 74.8236C130.934 74.5067 131.503 74.3482 132.225 74.3482H134.526ZM130.642 76.2288C130.642 77.0348 131.159 77.4377 132.194 77.4377H133.849V74.9992H132.246C131.176 74.9992 130.642 75.4091 130.642 76.2288ZM140.768 74.3482V79.7833H140.028V77.5204C139.397 77.796 138.776 77.9338 138.165 77.9338C137.505 77.9338 136.992 77.7857 136.624 77.4895C136.256 77.1864 136.072 76.7352 136.072 76.1358V74.3482H136.812V76.0945C136.812 76.5009 136.943 76.8109 137.207 77.0245C137.471 77.2311 137.835 77.3344 138.301 77.3344C138.814 77.3344 139.391 77.2001 140.028 76.9314V74.3482H140.768ZM142.867 74.3482H143.607V78.6674L147.262 74.3482H147.918V79.7833H147.178V75.4641L143.534 79.7833H142.867V74.3482ZM154.827 77.2931H150.245C150.287 77.858 150.505 78.316 150.901 78.6674C151.297 79.0119 151.796 79.1841 152.401 79.1841C152.741 79.1841 153.053 79.1255 153.337 79.0083C153.623 78.8844 153.868 78.7053 154.077 78.4711L154.494 78.9464C154.251 79.2357 153.945 79.4561 153.577 79.6077C153.216 79.7592 152.817 79.835 152.379 79.835C151.817 79.835 151.317 79.718 150.881 79.4837C150.449 79.2426 150.113 78.912 149.871 78.4918C149.627 78.0715 149.506 77.5962 149.506 77.0658C149.506 76.5354 149.621 76.0601 149.849 75.6399C150.085 75.2196 150.405 74.8925 150.807 74.6582C151.217 74.424 151.675 74.3069 152.182 74.3069C152.688 74.3069 153.144 74.424 153.546 74.6582C153.948 74.8925 154.265 75.2196 154.494 75.6399C154.723 76.0531 154.837 76.5285 154.837 77.0658L154.827 77.2931ZM152.182 74.9372C151.654 74.9372 151.211 75.106 150.849 75.4435C150.495 75.7742 150.294 76.2082 150.245 76.7454H154.129C154.081 76.2082 153.876 75.7742 153.515 75.4435C153.161 75.106 152.716 74.9372 152.182 74.9372ZM164.009 73.2116H160.126L160.136 79.7833H159.376V72.5503H164.009V73.2116ZM165.822 79.835C165.294 79.835 164.818 79.718 164.395 79.4837C163.971 79.2426 163.638 78.912 163.395 78.4918C163.152 78.0715 163.031 77.5962 163.031 77.0658C163.031 76.5354 163.152 76.0601 163.395 75.6399C163.638 75.2196 163.971 74.8925 164.395 74.6582C164.818 74.424 165.294 74.3069 165.822 74.3069C166.348 74.3069 166.824 74.424 167.247 74.6582C167.672 74.8925 168.001 75.2196 168.237 75.6399C168.479 76.0601 168.602 76.5354 168.602 77.0658C168.602 77.5962 168.479 78.0715 168.237 78.4918C168.001 78.912 167.672 79.2426 167.247 79.4837C166.824 79.718 166.348 79.835 165.822 79.835ZM165.822 79.1841C166.209 79.1841 166.557 79.098 166.863 78.9258C167.175 78.7466 167.418 78.4952 167.592 78.1714C167.765 77.8477 167.852 77.4791 167.852 77.0658C167.852 76.6525 167.765 76.2839 167.592 75.9602C167.418 75.6364 167.175 75.3884 166.863 75.2162C166.557 75.0371 166.209 74.9476 165.822 74.9476C165.433 74.9476 165.082 75.0371 164.769 75.2162C164.464 75.3884 164.221 75.6364 164.041 75.9602C163.867 76.2839 163.781 76.6525 163.781 77.0658C163.781 77.4791 163.867 77.8477 164.041 78.1714C164.221 78.4952 164.464 78.7466 164.769 78.9258C165.082 79.098 165.433 79.1841 165.822 79.1841ZM174.628 74.3482V79.7833H173.889V74.9992H171.265L171.193 76.3425C171.137 77.4722 171.005 78.3402 170.796 78.9464C170.588 79.5526 170.217 79.8557 169.683 79.8557C169.536 79.8557 169.359 79.8281 169.152 79.773L169.204 79.1427C169.328 79.1703 169.415 79.1841 169.464 79.1841C169.748 79.1841 169.964 79.0531 170.109 78.7914C170.255 78.5296 170.353 78.2059 170.401 77.8201C170.449 77.4343 170.492 76.9246 170.526 76.2909L170.619 74.3482H174.628ZM178.989 79.835C178.463 79.835 177.987 79.718 177.564 79.4837C177.139 79.2426 176.807 78.912 176.564 78.4918C176.321 78.0715 176.199 77.5962 176.199 77.0658C176.199 76.5354 176.321 76.0601 176.564 75.6399C176.807 75.2196 177.139 74.8925 177.564 74.6582C177.987 74.424 178.463 74.3069 178.989 74.3069C179.517 74.3069 179.993 74.424 180.416 74.6582C180.839 74.8925 181.169 75.2196 181.406 75.6399C181.648 76.0601 181.771 76.5354 181.771 77.0658C181.771 77.5962 181.648 78.0715 181.406 78.4918C181.169 78.912 180.839 79.2426 180.416 79.4837C179.993 79.718 179.517 79.835 178.989 79.835ZM178.989 79.1841C179.378 79.1841 179.726 79.098 180.032 78.9258C180.344 78.7466 180.586 78.4952 180.761 78.1714C180.934 77.8477 181.021 77.4791 181.021 77.0658C181.021 76.6525 180.934 76.2839 180.761 75.9602C180.586 75.6364 180.344 75.3884 180.032 75.2162C179.726 75.0371 179.378 74.9476 178.989 74.9476C178.602 74.9476 178.251 75.0371 177.938 75.2162C177.633 75.3884 177.389 75.6364 177.209 75.9602C177.036 76.2839 176.949 76.6525 176.949 77.0658C176.949 77.4791 177.036 77.8477 177.209 78.1714C177.389 78.4952 177.633 78.7466 177.938 78.9258C178.251 79.098 178.602 79.1841 178.989 79.1841ZM186.838 76.9728C187.582 77.145 187.953 77.5893 187.953 78.3058C187.953 78.7811 187.776 79.1462 187.422 79.4011C187.067 79.6559 186.541 79.7833 185.839 79.7833H183.351V74.3482H185.766C186.391 74.3482 186.881 74.4688 187.234 74.7099C187.588 74.951 187.765 75.2955 187.765 75.7432C187.765 76.0394 187.682 76.2943 187.515 76.5078C187.356 76.7145 187.131 76.8695 186.838 76.9728ZM184.068 76.7662H185.714C186.137 76.7662 186.461 76.6869 186.683 76.5285C186.912 76.37 187.026 76.1393 187.026 75.8362C187.026 75.5331 186.912 75.3057 186.683 75.1542C186.461 75.0026 186.137 74.9269 185.714 74.9269H184.068V76.7662ZM185.807 79.2047C186.279 79.2047 186.634 79.129 186.869 78.9774C187.106 78.8259 187.224 78.5882 187.224 78.2644C187.224 77.9406 187.116 77.703 186.902 77.5514C186.686 77.393 186.346 77.3138 185.881 77.3138H184.068V79.2047H185.807ZM191.987 76.2701C192.674 76.2771 193.198 76.4286 193.559 76.7248C193.921 77.021 194.101 77.4481 194.101 78.0061C194.101 78.5847 193.906 79.0291 193.517 79.339C193.128 79.649 192.574 79.8005 191.852 79.7937L189.686 79.7833V74.3482H190.425V76.2495L191.987 76.2701ZM195.017 74.3482H195.756V79.7833H195.017V74.3482ZM191.809 79.2357C192.316 79.2426 192.698 79.1427 192.955 78.936C193.219 78.7226 193.351 78.4125 193.351 78.0061C193.351 77.6065 193.223 77.3104 192.966 77.1174C192.708 76.9246 192.324 76.8247 191.809 76.8178L190.425 76.7971V79.2151L191.809 79.2357Z" fill="#1E1E1E"/>
</svg>
