<svg width="30" height="30" viewBox="0 0 30 30" fill="none" xmlns="http://www.w3.org/2000/svg">
<g clip-path="url(#clip0_42_269)">
<path d="M17.5 6.91038C18.8822 7.18004 20.1524 7.85602 21.1482 8.85179C22.144 9.84757 22.82 11.1178 23.0896 12.5M17.5 1.25C20.3716 1.56901 23.0494 2.85496 25.0937 4.89671C27.138 6.93845 28.4274 9.61463 28.75 12.4858" stroke="#B52B46" stroke-width="2" stroke-linecap="round" stroke-linejoin="round"/>
<path d="M27.4992 23.089V27.2289C27.5007 27.6132 27.4218 27.9936 27.2676 28.3458C27.1133 28.6979 26.887 29.014 26.6033 29.2738C26.3195 29.5336 25.9845 29.7314 25.6197 29.8545C25.2549 29.9777 24.8684 30.0234 24.4849 29.9888C20.2301 29.5274 16.1431 28.0764 12.5522 25.7523C9.21142 23.6337 6.37899 20.8068 4.25609 17.4726C1.91931 13.8726 0.465082 9.77386 0.0112229 5.50843C-0.0233299 5.12683 0.0221115 4.74223 0.144653 4.37911C0.267195 4.016 0.464153 3.68232 0.722986 3.39934C0.981819 3.11636 1.29686 2.89026 1.64804 2.73545C1.99923 2.58063 2.37886 2.50049 2.76278 2.50013H6.91086C7.58189 2.49354 8.23242 2.73069 8.74121 3.16739C9.25 3.60408 9.58233 4.21051 9.67624 4.87365C9.85132 6.1985 10.176 7.49933 10.6441 8.75132C10.8302 9.24524 10.8704 9.78203 10.7601 10.2981C10.6499 10.8141 10.3937 11.2878 10.0219 11.663L8.2659 13.4156C10.2342 16.8703 13.1004 19.7308 16.5621 21.6953L18.3181 19.9427C18.694 19.5717 19.1686 19.316 19.6857 19.206C20.2028 19.0959 20.7407 19.1361 21.2356 19.3218C22.49 19.7889 23.7934 20.113 25.1209 20.2877C25.7926 20.3823 26.406 20.7199 26.8445 21.2364C27.283 21.7529 27.516 22.4123 27.4992 23.089Z" fill="#B52B46"/>
</g>
<defs>
<clipPath id="clip0_42_269">
<rect width="30" height="30" fill="white"/>
</clipPath>
</defs>
</svg>
