<svg width="26" height="29" viewBox="0 0 26 29" fill="none" xmlns="http://www.w3.org/2000/svg">
<path d="M1.74515 1.30828C1.79999 1.17017 1.89526 1.05408 2.01953 0.97395C2.14379 0.89382 2.29176 0.853064 2.44564 0.85658C4.1013 0.895103 5.35531 1.18781 6.60484 1.47948C11.7424 2.67868 14.4024 6.08314 16.1461 10.1612L21.3334 11.372C21.7763 11.4758 22.1915 11.6978 22.5327 12.0133C22.8739 12.3289 23.1275 12.7254 23.2653 13.1587L24.9712 18.5391C25.0341 18.7383 25.0458 18.9461 25.0053 19.1426C24.9648 19.3392 24.8733 19.518 24.7396 19.6622C24.6059 19.8063 24.4343 19.911 24.2412 19.9662C24.0482 20.0214 23.84 20.0254 23.6364 19.9778L18.4705 18.772L19.4175 20.1261C19.6704 20.4878 19.776 20.9228 19.7113 21.3356C19.6465 21.7484 19.4165 22.1051 19.0721 22.3273L16.1495 24.2123C15.9788 24.3224 15.7852 24.3961 15.5796 24.4292C15.374 24.4623 15.1605 24.4542 14.9513 24.4054C14.7421 24.3566 14.5412 24.2679 14.3602 24.1446C14.1792 24.0212 14.0216 23.8655 13.8963 23.6864L12.9493 22.3322L12.1565 27.3835C12.1253 27.5824 12.0427 27.7658 11.9164 27.9165C11.7901 28.0672 11.6244 28.18 11.4349 28.2443C11.2455 28.3086 11.0385 28.3223 10.8338 28.284C10.629 28.2458 10.4332 28.1568 10.265 28.0256L5.72855 24.4762C5.36225 24.1899 5.07541 23.8142 4.90023 23.3912C4.72505 22.9682 4.66848 22.5146 4.73685 22.0814L5.534 17.0024C2.2738 13.9067 -0.0105064 10.242 0.773509 5.2467C0.960927 4.0197 1.15333 2.79387 1.74515 1.30828ZM6.63446 9.95804C7.0283 10.05 7.4312 10.0257 7.79223 9.88835C8.15325 9.75099 8.45617 9.50667 8.66269 9.18631C8.86921 8.86595 8.97005 8.48392 8.95245 8.08854C8.93486 7.69316 8.79962 7.30219 8.56384 6.96506C8.32807 6.62794 8.00234 6.3598 7.62785 6.19456C7.25337 6.02932 6.84694 5.97439 6.45996 6.03673C6.07299 6.09907 5.72285 6.27587 5.45382 6.54478C5.1848 6.81369 5.00897 7.16262 4.94856 7.54746C4.86757 8.06351 4.99969 8.6074 5.31585 9.05947C5.63202 9.51154 6.10634 9.83477 6.63446 9.95804Z" fill="#B52B46"/>
</svg>
